<?xml version="1.0" encoding="utf-8"?>
<!-- Generator: Adobe Illustrator 16.0.4, SVG Export Plug-In . SVG Version: 6.00 Build 0)  -->
<!DOCTYPE svg PUBLIC "-//W3C//DTD SVG 1.1//EN" "http://www.w3.org/Graphics/SVG/1.1/DTD/svg11.dtd">
<svg version="1.1" id="_x30_1-C" xmlns="http://www.w3.org/2000/svg" xmlns:xlink="http://www.w3.org/1999/xlink" x="0px" y="0px"
	 width="78.7px" height="78.7px" viewBox="0 0 78.7 78.7" style="enable-background:new 0 0 78.7 78.7;" xml:space="preserve">
<g>
	<path style="fill:#00205B;" d="M23.2,45.7c-0.4,0.1-0.9,0.4-0.8,0.8c0.1,0.3,0.6,0.5,0.9,0.5C24.2,47,24.2,45.6,23.2,45.7z"/>
	<polygon style="fill:#00205B;" points="22.1,50 21.3,50 20.4,51.5 20.4,51.5 20.4,50 19.6,50 19.6,53.7 20.4,53.7 20.4,52.6 
		20.7,52.2 21.4,53.7 22.2,53.7 21.1,51.6 	"/>
	<polygon style="fill:#00205B;" points="23.9,51.4 23.9,51.4 23.4,50 22.6,50 23.5,52.2 23.5,53.7 24.2,53.7 24.2,52.2 25.2,50 
		24.4,50 	"/>
	<path style="fill:#00205B;" d="M27.8,50.5c-0.1-0.2-0.2-0.3-0.4-0.4S27,50,26.7,50c-0.3,0-0.5,0-0.7,0.1c-0.2,0.1-0.3,0.2-0.4,0.4
		c-0.1,0.2-0.1,0.4-0.2,0.6c0,0.2,0,0.5,0,0.8c0,0.3,0,0.5,0,0.8c0,0.2,0.1,0.4,0.2,0.6c0.1,0.2,0.2,0.3,0.4,0.4
		c0.2,0.1,0.4,0.1,0.7,0.1c0.3,0,0.5,0,0.7-0.1c0.2-0.1,0.3-0.2,0.4-0.4c0.1-0.2,0.1-0.4,0.2-0.6c0-0.2,0-0.5,0-0.8
		c0-0.3,0-0.5,0-0.8C27.9,50.9,27.9,50.6,27.8,50.5z M27.2,52.5c0,0.2,0,0.3-0.1,0.4c0,0.1-0.1,0.2-0.1,0.2
		c-0.1,0.1-0.2,0.1-0.3,0.1c-0.1,0-0.2,0-0.3-0.1c-0.1,0-0.1-0.1-0.2-0.2c0-0.1,0-0.2-0.1-0.4c0-0.2,0-0.4,0-0.6c0-0.2,0-0.4,0-0.6
		s0-0.3,0.1-0.4c0-0.1,0.1-0.2,0.2-0.2c0.1-0.1,0.2-0.1,0.3-0.1c0.1,0,0.2,0,0.3,0.1c0.1,0,0.1,0.1,0.1,0.2c0,0.1,0.1,0.2,0.1,0.4
		c0,0.2,0,0.4,0,0.6C27.3,52.1,27.2,52.3,27.2,52.5z"/>
	<polygon style="fill:#00205B;" points="28.4,50.6 29.2,50.6 29.2,53.7 29.9,53.7 29.9,50.6 30.7,50.6 30.7,50 28.4,50 	"/>
	<path style="fill:#00205B;" d="M33.2,50.5c-0.1-0.2-0.2-0.3-0.4-0.4C32.7,50,32.5,50,32.2,50c-0.3,0-0.5,0-0.7,0.1
		c-0.2,0.1-0.3,0.2-0.4,0.4c-0.1,0.2-0.1,0.4-0.2,0.6c0,0.2,0,0.5,0,0.8c0,0.3,0,0.5,0,0.8c0,0.2,0.1,0.4,0.2,0.6
		c0.1,0.2,0.2,0.3,0.4,0.4c0.2,0.1,0.4,0.1,0.7,0.1c0.3,0,0.5,0,0.7-0.1c0.2-0.1,0.3-0.2,0.4-0.4c0.1-0.2,0.1-0.4,0.2-0.6
		c0-0.2,0-0.5,0-0.8c0-0.3,0-0.5,0-0.8C33.4,50.9,33.3,50.6,33.2,50.5z M32.7,52.5c0,0.2,0,0.3-0.1,0.4c0,0.1-0.1,0.2-0.2,0.2
		c-0.1,0.1-0.1,0.1-0.3,0.1c-0.1,0-0.2,0-0.3-0.1c-0.1,0-0.1-0.1-0.2-0.2c0-0.1-0.1-0.2-0.1-0.4c0-0.2,0-0.4,0-0.6
		c0-0.2,0-0.4,0-0.6s0-0.3,0.1-0.4c0-0.1,0.1-0.2,0.2-0.2c0.1-0.1,0.1-0.1,0.3-0.1c0.1,0,0.2,0,0.3,0.1c0.1,0,0.1,0.1,0.2,0.2
		c0,0.1,0.1,0.2,0.1,0.4c0,0.2,0,0.4,0,0.6C32.7,52.1,32.7,52.3,32.7,52.5z"/>
	<path style="fill:#00205B;" d="M47.1,52.6c0,0.2,0,0.3-0.1,0.4c0,0.1-0.1,0.1-0.3,0.1c-0.1,0-0.2-0.1-0.3-0.1
		c0-0.1-0.1-0.2-0.1-0.4v-0.1h-0.7v0.2c0,0.1,0,0.3,0,0.4c0,0.1,0.1,0.2,0.1,0.3c0.1,0.1,0.2,0.2,0.3,0.2c0.1,0,0.3,0.1,0.5,0.1
		c0.4,0,0.6-0.1,0.8-0.2c0.2-0.2,0.3-0.4,0.3-0.8V50h-0.7V52.6z"/>
	<path style="fill:#00205B;" d="M49.2,50l-1,3.6H49l0.2-0.8h1l0.2,0.8h0.8l-1-3.6H49.2z M49.3,52.3l0.4-1.6l0,0l0.4,1.6H49.3z"/>
	<path style="fill:#00205B;" d="M53.7,50.7c0-0.1-0.1-0.2-0.2-0.3c-0.1-0.1-0.2-0.2-0.3-0.2c-0.1-0.1-0.3-0.1-0.5-0.1h-1.3v3.6h0.7
		v-1.4h0.4c0.2,0,0.3,0,0.5-0.1c0.1,0,0.3-0.1,0.4-0.2c0.1-0.1,0.2-0.2,0.2-0.3c0.1-0.1,0.1-0.3,0.1-0.5
		C53.7,51,53.7,50.8,53.7,50.7z M52.9,51.5c-0.1,0.1-0.2,0.1-0.3,0.1h-0.3v-1.1h0.3c0.2,0,0.3,0,0.4,0.1c0.1,0.1,0.1,0.2,0.1,0.4
		C53,51.3,53,51.5,52.9,51.5z"/>
	<path style="fill:#00205B;" d="M54.7,50l-1,3.6h0.8l0.2-0.8h1l0.2,0.8h0.8l-1-3.6H54.7z M54.8,52.3l0.3-1.6h0l0.3,1.6H54.8z"/>
	<polygon style="fill:#00205B;" points="58.7,52.5 58.7,52.5 57.8,50 57,50 57,53.7 57.6,53.7 57.6,51.1 57.6,51.1 58.5,53.7 
		59.4,53.7 59.4,50 58.7,50 	"/>
	<path style="fill:#00205B;" d="M35.9,53.5c0.1,0,0.3-0.1,0.3-0.3V51h1.9v2.3c0,0.1,0.1,0.3,0.3,0.3c0.1,0,0.3-0.1,0.3-0.3V51h2.2
		v2.3c0,0.1,0.1,0.3,0.3,0.3c0.1,0,0.3-0.1,0.3-0.3V51h1.9v2.3c0,0.1,0.1,0.3,0.3,0.3s0.3-0.1,0.3-0.3v-2.5c0-0.1-0.1-0.3-0.3-0.3
		H40v-1.1c0-0.1-0.1-0.3-0.3-0.3c-0.1,0-0.3,0.1-0.3,0.3v1.1h-3.5c-0.1,0-0.3,0.1-0.3,0.3v2.5C35.7,53.4,35.8,53.5,35.9,53.5z"/>
	<path style="fill:#00205B;" d="M35.9,57.5h1.6c0.1,0,0.3-0.1,0.3-0.3c0-0.1-0.1-0.2-0.3-0.2h-1.3v-0.6h1.3c0.1,0,0.3-0.1,0.3-0.3
		c0-0.1-0.1-0.3-0.3-0.3h-1.3v-0.6h1.3c0.1,0,0.3-0.1,0.3-0.3c0-0.1-0.1-0.2-0.3-0.2h-1.3v-0.4c0-0.1-0.1-0.3-0.3-0.3
		s-0.3,0.1-0.3,0.3v2.9C35.7,57.4,35.8,57.5,35.9,57.5z"/>
	<path style="fill:#00205B;" d="M43.5,54.1c-0.1,0-0.3,0.1-0.3,0.3v0.4H42c-0.1,0-0.3,0.1-0.3,0.2c0,0.2,0.1,0.3,0.3,0.3h1.3v0.6H42
		c-0.1,0-0.3,0.1-0.3,0.3c0,0.1,0.1,0.3,0.3,0.3h1.3V57H42c-0.1,0-0.3,0.1-0.3,0.2c0,0.1,0.1,0.3,0.3,0.3h1.5c0.1,0,0.3-0.1,0.3-0.3
		v-2.9C43.8,54.2,43.7,54.1,43.5,54.1z"/>
	<path style="fill:#00205B;" d="M41.1,55.8c0-0.1,0-0.2-0.1-0.2L40.2,55l0.8-0.6c0.1-0.1,0.1-0.2,0.1-0.4C41,54,40.8,54,40.7,54.1
		l-1,0.7l-1-0.7c-0.1-0.1-0.3,0-0.4,0.1c-0.1,0.1,0,0.3,0.1,0.4l0.8,0.6l-0.8,0.6c-0.1,0.1-0.1,0.1-0.1,0.2c0,0.1,0,0.2,0.1,0.2
		l0.8,0.6l-0.8,0.6c-0.1,0.1-0.1,0.2-0.1,0.4c0,0.1,0.1,0.1,0.2,0.1c0.1,0,0.1,0,0.2,0l1-0.7l1,0.7c0,0,0.1,0,0.1,0
		c0.1,0,0.2,0,0.2-0.1c0.1-0.1,0-0.3-0.1-0.4l-0.8-0.6L41,56C41.1,56,41.1,55.9,41.1,55.8z M39.7,56.3l-0.7-0.5l0.7-0.5l0.7,0.5
		L39.7,56.3z"/>
	<path style="fill:#00205B;" d="M43.5,58.3h-7.6c-0.1,0-0.3,0.1-0.3,0.3v4.3c0,0.1,0.1,0.3,0.3,0.3c0.1,0,0.3-0.1,0.3-0.3v-4.1h7.1
		v4c0,0.1,0.1,0.3,0.3,0.3s0.3-0.1,0.3-0.3v-4.3C43.8,58.4,43.6,58.3,43.5,58.3z"/>
	<path style="fill:#00205B;" d="M42.5,59.3c-0.1,0-0.2,0.1-0.2,0.2v2H40v-0.6h1.5c0.2,0,0.3-0.1,0.3-0.3v-1.1c0-0.1-0.1-0.2-0.3-0.2
		h-3.5c-0.1,0-0.3,0.1-0.3,0.2v1.1c0,0.1,0.1,0.3,0.3,0.3h1.5v0.6h-2.3v-2c0-0.1-0.1-0.2-0.3-0.2c-0.1,0-0.2,0.1-0.2,0.2v2.3
		c0,0.2,0.1,0.3,0.2,0.3h2.5v0.6h-2.6c-0.1,0-0.2,0.1-0.2,0.2c0,0.1,0.1,0.3,0.2,0.3h2.9c0.1,0,0.3-0.1,0.3-0.3v-0.9h2.5
		c0.1,0,0.3-0.1,0.3-0.3v-2.3C42.8,59.4,42.7,59.3,42.5,59.3z M38.2,60.4v-0.6h3v0.6H38.2z"/>
	<path style="fill:#00205B;" d="M39.4,0C17.6,0,0,17.6,0,39.3c0,21.7,17.6,39.3,39.4,39.3c21.7,0,39.3-17.6,39.3-39.3
		C78.7,17.6,61.1,0,39.4,0z M66.5,66.5c-7,7-16.6,11.3-27.2,11.3c-10.6,0-20.2-4.3-27.2-11.3c-7-7-11.3-16.6-11.3-27.2
		c0-10.6,4.3-20.2,11.3-27.2c7-7,16.6-11.3,27.2-11.3c10.6,0,20.2,4.3,27.2,11.3c7,7,11.3,16.6,11.3,27.2
		C77.8,50,73.5,59.6,66.5,66.5z"/>
	<path style="fill:#00205B;" d="M39.3,2.1C18.8,2.1,2.1,18.8,2.1,39.3c0,20.6,16.7,37.3,37.3,37.3c20.6,0,37.3-16.7,37.3-37.3
		C76.6,18.8,59.9,2.1,39.3,2.1z M65.3,65.3c-6.6,6.6-15.8,10.8-26,10.8c-10.1,0-19.3-4.1-25.9-10.8c-6.6-6.6-10.8-15.8-10.8-26
		c0-10.1,4.1-19.3,10.8-26S29.2,2.6,39.3,2.6c10.1,0,19.3,4.1,26,10.8S76,29.2,76,39.3C76,49.5,71.9,58.7,65.3,65.3z"/>
	<polygon style="fill:#00205B;" points="10.8,38.4 8.7,38.2 7.9,37.2 11.1,35.3 11.2,34.2 7.4,36.5 5.2,33.8 5.1,34.9 7.8,38.1 
		4.9,37.9 4.8,38.7 10.8,39.2 	"/>
	<polygon style="fill:#00205B;" points="11.9,31.5 12.2,30.7 9.9,30 7.1,26.8 6.8,27.8 9.1,30.2 5.8,31.1 5.6,32 9.6,30.8 	"/>
	<path style="fill:#00205B;" d="M10.5,26.3c0.8,0.4,1.5,0.6,2.3,0.5c0.8-0.2,1.4-0.6,1.9-1.4c0.5-0.9,0.6-1.7,0.2-2.5
		c-0.3-0.7-0.8-1.2-1.6-1.7c-0.7-0.4-1.4-0.6-2.1-0.5c-0.8,0.1-1.5,0.6-2,1.5C8.7,23.1,8.6,24,9,24.8C9.3,25.4,9.8,25.9,10.5,26.3z
		 M9.9,22.6c0.3-0.6,0.7-0.9,1.3-1c0.6-0.1,1.1,0,1.8,0.4c0.6,0.3,1,0.8,1.3,1.3c0.3,0.5,0.3,1.1-0.1,1.7c-0.4,0.7-0.8,1-1.4,1.1
		c-0.6,0.1-1.1-0.1-1.7-0.4c-0.7-0.4-1.2-0.9-1.4-1.4C9.5,23.6,9.5,23.1,9.9,22.6z"/>
	<polygon style="fill:#00205B;" points="14,17 17.9,20.5 18.5,19.9 14.6,16.4 15.9,14.9 15.4,14.4 12.1,18 12.7,18.5 	"/>
	<path style="fill:#00205B;" d="M20.5,16.9c0.8,0.2,1.5,0,2.3-0.5c0.8-0.6,1.2-1.3,1.2-2.2c0-0.7-0.2-1.5-0.7-2.2
		c-0.5-0.7-1-1.1-1.7-1.3c-0.8-0.3-1.6-0.1-2.5,0.5c-0.8,0.6-1.2,1.3-1.2,2.2c0,0.7,0.2,1.4,0.7,2C19.1,16.2,19.7,16.7,20.5,16.9z
		 M19.6,11.8c0.5-0.4,1.1-0.5,1.6-0.4c0.6,0.1,1,0.5,1.4,1.1c0.4,0.5,0.6,1.1,0.7,1.7c0,0.6-0.2,1.1-0.8,1.5
		c-0.6,0.4-1.2,0.6-1.7,0.4c-0.5-0.2-1-0.5-1.4-1.1c-0.5-0.7-0.7-1.3-0.6-1.9C18.8,12.6,19,12.2,19.6,11.8z"/>
	<path style="fill:#00205B;" d="M28.9,11.8c0.6,0.6,1.3,0.7,2.3,0.4c1-0.3,1.5-0.8,1.7-1.6c0.1-0.4,0-1-0.2-1.7l-1-3.2l-0.8,0.2
		L32,9.4c0.1,0.4,0.2,0.8,0.1,1c-0.1,0.5-0.5,0.9-1.1,1.1c-0.6,0.2-1,0.1-1.4-0.3c-0.2-0.2-0.4-0.5-0.5-1l-1.1-3.6L27.1,7l1,3.2
		C28.3,10.9,28.6,11.4,28.9,11.8z"/>
	<polygon style="fill:#00205B;" points="36.2,11 36,6.1 39.3,10.8 40.2,10.8 39.8,4.8 39.1,4.8 39.3,9.7 36.1,5 35.1,5 35.5,11 	"/>
	<polygon style="fill:#00205B;" points="44,5.2 43.2,5.1 42.5,11 43.3,11.1 	"/>
	<polygon style="fill:#00205B;" points="47.9,12.2 51.7,7.1 50.9,6.8 47.8,11.2 47.6,5.8 46.7,5.6 47.1,11.9 	"/>
	<polygon style="fill:#00205B;" points="55.2,15.6 55.6,14.9 52.4,13.2 53.4,11.4 56.3,13 56.6,12.4 53.7,10.8 54.6,9.2 57.7,10.9 
		58.1,10.3 54.3,8.2 51.4,13.4 	"/>
	<path style="fill:#00205B;" d="M57.5,17.3l1.7-1.9l1.3,1.2c0.2,0.2,0.4,0.4,0.5,0.6c0.1,0.3,0,0.6-0.2,0.9l-0.7,0.8
		c-0.1,0.2-0.2,0.3-0.3,0.4c0,0.1-0.1,0.1-0.1,0.2l0.7,0.7l0.1-0.1c-0.1-0.1,0-0.3,0.1-0.4c0-0.1,0.1-0.2,0.3-0.4l0.5-0.6
		c0.2-0.3,0.3-0.5,0.4-0.7c0-0.2,0-0.4-0.1-0.6c0.3,0.1,0.6,0.1,0.8,0c0.3-0.1,0.5-0.2,0.8-0.5c0.5-0.5,0.6-1,0.4-1.6
		c-0.1-0.3-0.4-0.6-0.7-0.9l-2-1.8l-4,4.4L57.5,17.3z M61,13.4l1.4,1.3c0.2,0.2,0.3,0.4,0.4,0.5c0.1,0.3,0,0.6-0.3,0.9
		c-0.3,0.3-0.5,0.4-0.8,0.4c-0.3,0-0.5-0.2-0.8-0.4l-1.3-1.2L61,13.4z"/>
	<path style="fill:#00205B;" d="M63.3,23c-0.4-0.5-0.5-1-0.3-1.5c0.1-0.2,0.3-0.4,0.6-0.7l-0.4-0.6c-0.5,0.4-0.8,0.8-0.9,1.4
		c-0.1,0.6,0.1,1.1,0.5,1.7c0.3,0.5,0.8,0.9,1.3,1.1c0.5,0.2,1,0.2,1.6-0.2c0.4-0.3,0.7-0.7,0.7-1.2c0-0.3-0.1-0.6-0.2-1l-0.3-0.8
		c-0.2-0.5-0.3-0.9-0.3-1.1c0-0.3,0.1-0.5,0.3-0.7c0.2-0.2,0.5-0.2,0.8-0.1c0.3,0.1,0.5,0.3,0.8,0.6c0.3,0.5,0.4,0.9,0.3,1.3
		c-0.1,0.2-0.2,0.4-0.5,0.6l0.4,0.6c0.6-0.4,0.8-0.8,0.8-1.4c0-0.5-0.2-1-0.5-1.5c-0.4-0.6-0.8-0.9-1.3-1c-0.5-0.1-0.9,0-1.4,0.3
		c-0.4,0.3-0.6,0.7-0.6,1.1c0,0.3,0.1,0.6,0.3,1.1l0.3,0.8c0.2,0.4,0.2,0.7,0.2,1c0,0.2-0.1,0.5-0.4,0.6c-0.3,0.2-0.7,0.2-1.1-0.1
		C63.7,23.4,63.5,23.2,63.3,23z"/>
	<polygon style="fill:#00205B;" points="65.5,27.9 70.9,25.4 70.6,24.6 65.1,27.1 	"/>
	<polygon style="fill:#00205B;" points="66.7,31.3 66.9,32.1 72,30.7 72.5,32.6 73.2,32.4 71.9,27.7 71.2,27.9 71.8,29.9 	"/>
	<polygon style="fill:#00205B;" points="67.8,37 67.8,37.8 70.2,37.6 74,39.6 73.9,38.7 70.9,37.2 73.7,35.3 73.6,34.3 70.2,36.8 	
		"/>
	<polygon style="fill:#00205B;" points="11.8,54.1 10.5,51.5 12.2,50.7 13.6,53.7 14.2,53.4 12.5,49.7 7.1,52.2 7.4,52.9 9.9,51.8 
		11.1,54.4 	"/>
	<path style="fill:#00205B;" d="M16.7,56.7c-0.6-0.8-1.4-1.2-2.3-1.1c-0.7,0-1.4,0.3-2,0.8c-0.7,0.5-1.1,1.2-1.3,1.9
		c-0.2,0.8,0,1.6,0.6,2.3c0.6,0.8,1.3,1.2,2.2,1.2c0.7,0,1.5-0.3,2.2-0.8c0.7-0.5,1.1-1.1,1.2-1.7C17.6,58.4,17.4,57.6,16.7,56.7z
		 M16.6,58.8c-0.1,0.6-0.4,1-1,1.5c-0.5,0.4-1.1,0.6-1.7,0.7c-0.6,0.1-1.1-0.2-1.6-0.8c-0.5-0.6-0.6-1.2-0.5-1.7
		c0.2-0.5,0.5-1,1-1.4c0.7-0.5,1.3-0.7,1.8-0.7c0.6,0.1,1,0.3,1.4,0.8C16.6,57.7,16.7,58.2,16.6,58.8z"/>
	<path style="fill:#00205B;" d="M22.6,62.7l-2.3,2.9c-0.3,0.3-0.5,0.6-0.8,0.7c-0.5,0.2-1,0.1-1.5-0.3c-0.4-0.4-0.6-0.8-0.6-1.3
		c0.1-0.3,0.2-0.7,0.5-1l2.3-2.9l-0.6-0.5l-2.1,2.6c-0.5,0.6-0.7,1.1-0.8,1.5c-0.2,0.8,0.2,1.5,0.9,2.1c0.8,0.6,1.5,0.8,2.3,0.5
		c0.4-0.2,0.8-0.6,1.3-1.1l2.1-2.6L22.6,62.7z"/>
	<polygon style="fill:#00205B;" points="26.4,70.3 25.8,64.7 24.9,64.3 22.3,69.7 23,70 25.1,65.6 25.8,71.3 26.6,71.7 29.1,66.3 
		28.4,65.9 	"/>
	<path style="fill:#00205B;" d="M33.4,67.4L31,66.9l-1.2,5.8l2.3,0.5c1,0.2,1.8-0.1,2.4-0.9c0.3-0.5,0.6-1,0.7-1.6
		c0.2-0.8,0.1-1.5-0.2-2.1C34.7,68,34.2,67.6,33.4,67.4z M34.4,70.7c0,0.2-0.1,0.4-0.2,0.6c-0.2,0.4-0.3,0.6-0.5,0.8
		c-0.3,0.3-0.6,0.4-0.9,0.4c-0.2,0-0.4,0-0.7-0.1l-1.4-0.3l1-4.5l1.4,0.3c0.6,0.1,1,0.4,1.2,0.9C34.5,69.4,34.5,70,34.4,70.7z"/>
	<polygon style="fill:#00205B;" points="38.6,73.3 38.5,71.3 41.8,71.3 41.8,70.6 38.5,70.6 38.5,68.8 42,68.7 42,68 37.7,68.1 
		37.8,74.1 42.2,74 42.2,73.3 	"/>
	<path style="fill:#00205B;" d="M48.3,67.6c-0.6-0.5-1.3-0.6-2.1-0.4l-2.3,0.6l1.4,5.8l2.3-0.6c1-0.2,1.6-0.8,1.8-1.8
		c0.1-0.6,0.1-1.1-0.1-1.8C49.1,68.6,48.8,68,48.3,67.6z M48.5,71.4c-0.1,0.3-0.3,0.6-0.6,0.8c-0.1,0.1-0.4,0.2-0.6,0.2l-1.4,0.3
		l-1.1-4.5l1.4-0.3c0.6-0.1,1.1-0.1,1.5,0.3c0.4,0.3,0.6,0.9,0.8,1.6c0.1,0.2,0.1,0.4,0.1,0.6C48.7,70.8,48.6,71.1,48.5,71.4z"/>
	<path style="fill:#00205B;" d="M55.1,63.5c0.2,0.4,0.2,0.8,0.1,1c-0.1,0.2-0.4,0.5-0.8,0.8l0.3,0.5l1.2-0.8l2.2,3.5l0.7-0.4
		l-3.2-4.9L55.1,63.5z"/>
	<path style="fill:#00205B;" d="M62.7,61.2c-0.2,0-0.4,0-0.7,0.1c0.1-0.2,0.1-0.4,0.1-0.6c0-0.3-0.2-0.6-0.4-0.8
		c-0.3-0.3-0.6-0.4-1-0.4c-0.4,0-0.9,0.2-1.3,0.6c-0.4,0.4-0.6,0.8-0.6,1.3c0,0.5,0.1,0.8,0.4,1.1c0.2,0.2,0.5,0.4,0.8,0.4
		c0.2,0,0.3,0,0.5-0.1c-0.1,0.3-0.2,0.6-0.1,0.9c0.1,0.3,0.2,0.6,0.4,0.8c0.4,0.4,0.9,0.6,1.4,0.6c0.5,0,0.9-0.3,1.4-0.7
		c0.5-0.4,0.7-0.9,0.7-1.4c0-0.5-0.2-0.9-0.5-1.3C63.4,61.4,63.1,61.2,62.7,61.2z M60.4,62.2c-0.3,0-0.5-0.1-0.7-0.3
		c-0.2-0.2-0.3-0.4-0.3-0.6c0-0.2,0.1-0.5,0.4-0.7c0.3-0.3,0.5-0.4,0.8-0.4c0.3,0,0.5,0.1,0.6,0.3c0.2,0.2,0.3,0.4,0.3,0.7
		c0,0.2-0.1,0.5-0.3,0.7C60.9,62,60.7,62.2,60.4,62.2z M63.1,63.9c-0.3,0.3-0.6,0.4-0.9,0.4c-0.3,0-0.6-0.1-0.8-0.4
		c-0.3-0.2-0.4-0.5-0.3-0.8c0-0.3,0.2-0.6,0.4-0.8c0.3-0.2,0.5-0.4,0.8-0.4c0.3,0,0.6,0.1,0.9,0.4c0.3,0.3,0.4,0.5,0.3,0.8
		C63.5,63.4,63.4,63.7,63.1,63.9z"/>
	<path style="fill:#00205B;" d="M66.4,55.8c-0.5-0.4-1-0.6-1.5-0.7c-0.8-0.2-1.5,0.1-1.9,0.8c-0.4,0.5-0.5,1-0.3,1.5
		c0.1,0.5,0.4,0.9,0.9,1.2c0.5,0.3,0.9,0.4,1.4,0.4c0.5-0.1,0.9-0.3,1.2-0.8c0.2-0.2,0.3-0.5,0.3-0.7c0.1-0.3,0-0.5-0.1-0.8
		c0.7,0.6,1.1,1.1,1.2,1.5c0.1,0.4,0,0.7-0.2,1c-0.1,0.2-0.2,0.3-0.4,0.3c-0.3,0.2-0.6,0.1-1-0.1L65.5,60c0.4,0.3,0.7,0.3,1.2,0.3
		c0.4-0.1,0.8-0.3,1.1-0.8c0.5-0.7,0.5-1.4-0.1-2.3C67.4,56.7,66.9,56.2,66.4,55.8z M65.6,57.8c-0.2,0.3-0.5,0.5-0.8,0.5
		c-0.3,0-0.6-0.1-0.9-0.3c-0.3-0.2-0.5-0.5-0.6-0.8c-0.1-0.3,0-0.6,0.2-0.9c0.2-0.3,0.4-0.4,0.7-0.5c0.3-0.1,0.6,0,1,0.3
		c0.4,0.3,0.6,0.6,0.6,0.9C65.8,57.3,65.8,57.5,65.6,57.8z"/>
	<path style="fill:#00205B;" d="M68.8,51.9c-0.4-0.4-0.7-0.9-1-1.3c-0.3-0.5-0.5-0.8-0.6-1.1l-0.6-0.3L65,52.9l0.7,0.3l1.3-2.9
		c0.3,0.6,0.6,1.1,1.1,1.8c0.8,1,1.6,1.8,2.5,2.5l0.3-0.7c-0.5-0.4-0.9-0.6-1.1-0.8C69.5,52.6,69.2,52.3,68.8,51.9z"/>
	<path style="fill:#00205B;" d="M65.5,35.9c-0.1-0.6-0.2-1.2-0.3-1.8c0,0,0-0.1,0-0.1c-0.2-0.8-0.4-1.6-0.6-2.4
		c-3.3-10.8-13.4-18.7-25.3-18.7c-14.6,0-26.5,11.8-26.5,26.4c0,0.4,0,0.8,0.1,1.2c0.6,14,12.2,25.2,26.4,25.2
		c14.6,0,26.4-11.8,26.4-26.4c0-0.6,0-1.1-0.1-1.7c0-0.2,0-0.4,0-0.7C65.6,36.6,65.6,36.3,65.5,35.9z M64.9,37
		c0.4,0.1,0.3,0.5,0.1,0.7c-0.2,0.1-0.6,0-0.6-0.3C64.4,37,64.6,36.9,64.9,37z M64.4,35.5c0.7,1-1,0.3-1.2-0.1
		C63.1,34.9,64,34.9,64.4,35.5z M64.3,38.7c0.1,0.3-0.5,0.5-0.7,0C63.4,38.2,63.9,37.8,64.3,38.7z M63.3,37.6
		c-0.5,0.3-1-0.1-0.8-0.5s0.5-0.9,0.8-0.6C63.8,37,63.7,37.2,63.3,37.6z M63.9,34.3c-0.5,0-0.8-0.3-1-1c-0.1-0.7,0.6-0.6,1-0.1
		C64.3,33.6,64.4,34.3,63.9,34.3z M62.7,28.5c0.4,0.1,0.2,0.5,0.1,0.7c-0.2,0.1-0.6,0-0.6-0.3C62.2,28.5,62.4,28.4,62.7,28.5z
		 M62.7,30.8c0.1-0.6,0.3-0.8,0.6-0.3c0.3,0.6,0.7,0.7,0.4,1.2c-0.3,0.5-0.8,0.5-1.3,0.2C61.9,31.7,62.6,31.4,62.7,30.8z M62,32.7
		c0.1,0.3,0.1,0.6,0,1c-0.1,0.3,0,0.6,0.2,1c0.2,0.4-0.1,0.6-0.3,0.4c-0.1-0.1-0.4-0.3-0.5-0.3c-0.1-0.1-0.2-0.4-0.1-0.7
		c0.1-0.3,0-0.6-0.1-0.9c-0.1-0.3,0.1-0.7,0.4-0.7C61.7,32.3,61.9,32.4,62,32.7z M62.1,36.3c-0.1,0.3-0.3,0.4-0.7,0.3
		c-0.5-0.1-0.6-0.9-0.2-1.1C61.6,35.4,62.1,36,62.1,36.3z M61.7,30.4c-0.2,0.5-0.8,0.2-1.2,0.2c-0.3,0-0.4-0.5-0.2-0.9
		c0.2-0.4,0.5-0.5,0.8-0.4C61.6,29.5,61.9,29.9,61.7,30.4z M59.3,34.6c-0.6,0.2-0.7-0.1-0.7-1.1c0-1,1-0.6,1.2-0.2
		C60.2,34.1,59.9,34.4,59.3,34.6z M59.7,35.8c-0.2,0.1-0.8,0.2-0.8-0.2c0-0.4,0.4-0.7,0.8-0.5C60.3,35.4,59.9,35.7,59.7,35.8z
		 M46.4,36c-0.6,0-1.4-0.4-1.4-0.4c-0.5-0.4-0.7-1-0.7-1.7c0-0.7,0-1.3,0-1.8c0,0,0,0,0,0c0.1-0.2,0.3-0.4,0.7-0.5
		c0,0,0.6-0.2,0.7,0.5c0,0.2,0.1,0.4,0.2,0.6c-0.3,0.3-0.5,0.8-0.3,1.2c0.2,0.3,0.5,0.3,0.8-0.2c0.1-0.2,0.2-0.4,0.2-0.6
		c0,0,0,0,0.1,0c0.7-0.1,0.9-0.3,1.2,0.2c0.3,0.6,0.6,0.6,1,0.5c0.2,0,0.3,0,0.4,0c-0.1,0.2-0.2,0.3-0.2,0.5c-0.4,1-0.5,1-1,1.4
		C47.7,35.9,46.8,36,46.4,36z M48,37c0.1,0.2-0.3,0.3-0.5,0.3c-0.2,0.1-0.2,0.3-0.7,0.3c-0.4,0-0.4-0.5-0.3-0.7
		c0.1-0.2,0.3-0.3,0.7-0.2C47.2,36.7,47.9,36.8,48,37z M36.6,35.6c0.2,0.2,0.1,0.5,0,0.6c-0.1,0.1-0.3,0.4-0.2,0.5
		c0.1,0.1,0.1,0.3,0,0.5c-0.1,0.2-0.1,0.4,0.1,0.5s0.3,0.7,0,0.8c-0.3,0.1-0.4,0.5-0.3,0.7c0.2,0.2,0.2,0.4,0,0.6
		c-0.2,0.1-0.1,0.3-0.1,0.5c0.1,0.2,0.1,0.9-0.3,0.8c-0.4-0.1-0.3-0.5-0.6-0.8c-0.3-0.2-0.6-0.2-0.8-0.5c-0.2-0.3-0.3-0.7,0.1-1.1
		c0.4-0.4,0.8-0.2,0.8-0.6c0-0.5-0.3-0.7-0.5-0.5c-0.3,0.1-0.8-0.5-1.2,0c-0.1,0.1-1.1,0.7-1.4-0.4c-0.3-1.1,0.6-1.7,0.9-1.4
		c0,0,0.4,0.3,0.7,0.2c0.3-0.1,0.5-0.2,0.8,0.1c0.4,0.3,0.9,0,0.9-0.4c0-0.4,0.3-0.6,0.2-1.1c0-0.5,0.3-0.6,0.6-0.5
		c0.3,0.1,0.4,0.5,0.2,0.9C36.6,35.2,36.5,35.4,36.6,35.6z M30.3,35.8c0.2-0.5,0.7-0.6,0.9-0.5c0.2,0.1,0.2,0.4-0.1,0.7
		c-0.3,0.4,0,0.9-0.4,1C30.3,37.1,30.1,36.3,30.3,35.8z M30.2,33.6c0.2-0.2,0.4,0,0.5,0.1c0.4,0.3-0.1,0.6-0.3,0.5
		C30.2,34,30,33.7,30.2,33.6z M30.9,32.9c-0.4-0.1-1.5,0.1-1.5,0.1s-0.4,0.2-0.1,0.7c0.2,0.2,0.3,0.5,0.3,0.7
		c-0.2,0-0.7-0.3-0.8-0.4c-0.2-0.1-0.4-0.2-0.7-0.3c0-0.1,0.1-0.2,0.1-0.3c0-0.5-0.2-1.3,0.2-1.7c0.4-0.4,0.9-0.6,1.1-0.3
		c0,0,0.1,0.1,0.1,0.2c-0.1,0-0.1,0-0.1,0.1c-0.5,0.3-0.8,1-0.3,1.1c0.3,0.1,0.8-0.2,1-0.5c0.2,0.1,0.4,0.2,0.8,0.2
		c0.9,0,1.3-0.4,1.5-0.7c0.2-0.3,0.8-0.4,1-0.1c0,0,0.1,0.1,0.1,0.1h0c0,0,0.1,0.2,0.1,0.6c0,0.3,0,0.5,0.3,0.7
		c0.2,0.1,0.6,0.1,0.9-0.1v0c0,0,0.4-0.4,0.5,0c0,0.3,0,0.6,0,0.8c0,0.1,0,0.2,0,0.3c0,0,0,0,0,0c-0.1,0.5-0.2,0.8-0.8,0.8
		c-0.5,0.1-1.3-0.3-2.1-0.5l0,0c0,0-0.5-0.1-0.8-0.5C31.3,33.3,31.2,32.9,30.9,32.9z M29.2,36.1c-0.2,0-0.8-0.1-0.8-0.4
		c0-0.3,0.2-0.4,0.7-0.3C29.9,35.7,29.6,36.1,29.2,36.1z M22.7,34.2c-0.2,0.3-0.3,0.6-0.4,0.8c-0.1,0.2-0.5,0.1-0.5-0.1
		c-0.1-0.1-0.1-0.2-0.4-0.2c-0.3,0-0.4,0-0.5-0.2c-0.1-0.2-0.1-0.4,0.1-0.6c0.1-0.2,0.4-0.2,0.7-0.2c0.2,0,0.5-0.1,0.7-0.3
		c0.2-0.2,0.5-0.2,0.7,0C23.1,33.7,22.9,34,22.7,34.2z M22.7,36.7c-0.2,0.2-0.6,0.3-0.9,0c-0.3-0.3,0.1-0.8,0.4-0.9
		c0.3-0.1,0.5-0.1,0.7,0.1C23.1,36.2,22.9,36.5,22.7,36.7z M18.2,31.8c0.1,0.1-0.1,0.3-0.2,0.3c-0.1,0.1-0.2,0.1-0.3,0.3
		c-0.1,0.2-0.2,0.2-0.4,0.2c-0.2,0-0.2-0.1-0.3-0.3c-0.2-0.2-0.1-0.4,0-0.6c0.1-0.2,0.3-0.2,0.5-0.2C17.6,31.5,18.1,31.7,18.2,31.8z
		 M18.2,30.6c0.2,0.2,0,0.6-0.3,0.5c-0.4-0.1-0.4-0.4-0.5-0.6C17.3,30.3,17.6,30,18.2,30.6z M17.4,33.5c0.3,0,0.5-0.1,0.7-0.4
		c0.3-0.2,0.5,0,0.4,0.2c-0.1,0.1-0.1,0.4-0.2,0.5c0,0.1-0.2,0.3-0.5,0.2c-0.3,0-0.4,0.1-0.7,0.3c-0.2,0.2-0.6,0-0.6-0.1
		c-0.1-0.2-0.1-0.3,0.1-0.5C16.8,33.6,17.1,33.5,17.4,33.5z M17.7,35.3c-0.1,0.3-0.4,0.4-0.6,0.4c-0.2,0-0.4-0.2-0.2-0.5
		C17,35,17.2,35,17.5,35C17.5,35,17.8,35,17.7,35.3z M16.6,38.2c0.1-0.2,0.3-0.3,0.5-0.3c0.3-0.1,0.4,0,0.5,0.1
		c0.1,0.1,0.1,0.4-0.1,0.6c-0.2,0.2-0.6,0.2-0.7,0.2C16.5,38.6,16.5,38.3,16.6,38.2z M17.4,37.1c-0.2,0-0.5,0-0.6-0.2
		c-0.1-0.2,0-0.4,0.2-0.4c0.2-0.1,0.4-0.1,0.6-0.2c0.2-0.1,0.3-0.2,0.4-0.3c0.2-0.2,0.4-0.2,0.5-0.1c0.1,0,0.2,0.2,0.2,0.4
		c0,0.2-0.1,0.3-0.4,0.6C18,37,17.6,37,17.4,37.1z M18.4,37.6c0.1-0.1,0.2-0.2,0.5-0.2c0.3,0,0.4-0.1,0.5-0.1
		c0.1-0.1,0.3-0.1,0.3,0.1c0,0.3-0.3,0.5-0.5,0.6c-0.2,0.1-0.5,0.3-0.8,0.1C18.2,37.9,18.3,37.7,18.4,37.6z M19.3,35.2
		c-0.4,0.1-0.6-0.1-0.8-0.3c-0.2-0.2-0.1-0.5,0.1-0.6c0.2-0.1,0.3-0.3,0.4-0.4c0.1-0.1,0.4-0.2,0.7-0.1c0.2,0.1,0.2,0.4,0.2,0.7
		C20,34.8,19.7,35.1,19.3,35.2z M18.9,31.7c0-0.3,0.1-0.4,0.4-0.4c0,0,0.8,0.2,1,0.4c0.2,0.2,0.2,0.5,0,0.8
		c-0.2,0.3-0.5,0.2-0.9,0.2c-0.4,0-0.3-0.3-0.3-0.5C19.2,32,19,32,18.9,31.7z M20.4,30.5c-0.1,0.3-0.5,0.1-0.7,0.1
		c-0.2,0-0.2-0.3-0.1-0.5c0.1-0.2,0.3-0.3,0.5-0.2C20.3,29.9,20.5,30.2,20.4,30.5z M19.8,26.8c-0.4,0.1-0.6-0.1-0.6-0.5
		c0-0.3,0.2-0.6,0.6-0.4C20.4,26.1,20.2,26.7,19.8,26.8z M19.4,28.4c0,0.2,0.1,0.2,0,0.5c0,0.3-0.3,0.1-0.6,0
		c-0.3-0.1-0.5-0.6-0.4-0.9c0.1-0.3,0.3-0.2,0.5-0.2C19.3,27.9,19.4,28.2,19.4,28.4z M19.8,36.1c0.1-0.4,0.4-0.6,0.7-0.7
		c0.3-0.1,0.5,0.1,0.5,0.3c0,0.2-0.2,0.8-0.7,1C19.9,36.8,19.7,36.5,19.8,36.1z M21.2,29.7c-0.1-0.2,0.2-0.5,0.5-0.1
		c0.3,0.4,0.5,0.8,0.8,1c0.3,0.3,0.1,0.8-0.2,0.9c-0.3,0-0.7,0-0.8-0.3c-0.1-0.2-0.2-0.3-0.3-0.5c-0.1-0.1-0.1-0.2-0.1-0.5
		C21.1,30,21.2,29.9,21.2,29.7z M22.7,27.9c0,0,0.4,0.1,0.8,0.3c0.3,0.2,0.2,0.5-0.1,0.8c-0.3,0.3-0.3,0.6-0.5,0.7
		c-0.2,0.1-0.4-0.3-0.3-0.5c0-0.2,0-0.4-0.2-0.8C22.2,28.1,22.5,27.8,22.7,27.9z M21.1,32.6c0.2,0,0.5-0.2,0.7-0.3
		c0.2-0.1,0.4,0,0.5,0.2c0.1,0.2-0.1,0.3-0.4,0.3c-0.2,0-0.3,0.1-0.4,0.3c-0.2,0.2-0.5,0.2-0.6,0C20.8,33,20.8,32.7,21.1,32.6z
		 M23.2,32.1c0.4-0.2,0.5-0.4,0.5-0.6c0-0.2,0.1-0.5,0.5-0.4c0.5,0.2,0,1,0,1c-0.1,0.2,0,0.6-0.3,0.7c-0.3,0-0.5,0-0.7-0.1
		C22.8,32.5,22.8,32.3,23.2,32.1z M25,30.3c-0.2,0.2-0.6,0-0.6,0c-0.3-0.1-0.5-0.2-0.5-0.4c0-0.2,0.1-0.3,0.3-0.4
		c0.3-0.1,0.4-0.3,0.5,0C24.8,29.8,25.2,30.1,25,30.3z M25.4,31.5c0.2,0.2,0.1,0.8-0.2,0.8c-0.4,0-0.4-0.4-0.2-0.7
		C25,31.4,25.2,31.4,25.4,31.5z M23.7,34.5c0.2-0.1,0.5-0.2,0.7-0.1c0.2,0.1,0.4,0.2,0.3,0.3c0,0.1-0.5,0.1-0.6,0.2
		c-0.1,0.1-0.2,0.2-0.4,0.2c-0.2,0-0.4-0.1-0.3-0.2C23.5,34.8,23.5,34.6,23.7,34.5z M24.4,33.1c0.1-0.1,0.3-0.1,0.5-0.2
		c0.2,0,0.8,0.3,0.8,0.5c0,0.2-0.1,0.3-0.8,0.3C24.3,33.7,24.3,33.3,24.4,33.1z M25.5,28.9c0-0.2,0.3-0.3,0.6-0.2
		c0,0,0.7,0.1,0.7,0.3c0.1,0.2-0.3,0.2-0.4,0.3c-0.2,0.1-0.2,0.3-0.6,0.3C25.4,29.5,25.4,29,25.5,28.9z M25.6,24.6
		c0.1-0.3,0.3-0.3,0.5-0.1c0.2,0.1,0.3,0.9,0.2,1.3c-0.1,0.3-0.4,0.5-0.8,0.2C25.2,25.7,25.5,25,25.6,24.6z M26.2,31.8
		c0.3-0.2,0.6-0.1,0.6,0.1c0,0.2,0,0.3,0,0.3c0,0.3,0,0.5-0.3,0.7c-0.3,0.1-0.5,0.1-0.6,0c-0.1-0.1,0-0.3,0-0.5
		C25.9,32.2,25.9,32,26.2,31.8z M26.3,34c0.3-0.2,0.5-0.5,0.6-0.7c0-0.2,0.3-0.3,0.4-0.1c0.1,0.2,0,0.7-0.1,0.9
		c-0.2,0.3-0.4,0.5-0.7,0.5c-0.3,0-0.5,0.1-0.7-0.1C25.7,34.4,26,34.2,26.3,34z M26.9,30.8c-0.3,0.1-0.6-0.1-0.7-0.3
		c-0.1-0.2,0-0.3,0.1-0.5c0.1-0.2,0.3-0.2,0.5-0.2c0,0,0.4,0.2,0.7,0.2c0.2,0.1,0.2,0.3-0.1,0.3C27.1,30.5,27.1,30.7,26.9,30.8z
		 M26.6,27.8c0-0.6,0.3-1,0.8-0.9c0.8,0.2,0.7,0.6,0.3,1C27.4,28.3,26.6,28.4,26.6,27.8z M27.7,23.8c0.4,0.1,0.3,0.6,0,1
		c-0.4,0.4-0.6-0.1-0.5-0.5C27.2,23.9,27.4,23.8,27.7,23.8z M27.8,21.8c0.4-0.5,1.2,0.2,1.6,0.6c0.3,0.4-0.1,0.8-1.1,0.8
		C27.3,23.2,27.5,22.3,27.8,21.8z M28.8,25.2c0.5,0,0.3,0.6,0.2,1.1c-0.4,1.8-0.8,0.1-0.8,0.1C27.4,25.7,28.3,25.1,28.8,25.2z
		 M28.4,30.1c0.1-0.3,0.3-0.3,0.5-0.2c0.4,0.1,0.4,0.5,0.1,0.7C28.6,30.9,28.2,30.4,28.4,30.1z M31.5,24c-0.2,0.4-0.6,0.6-1,0.2
		c-0.4-0.3,0-0.8,0.1-1.1c0.1-0.3,0.5-0.2,0.8,0C31.6,23.5,31.7,23.7,31.5,24z M31.6,28.8c0,0.6-0.5,0.6-0.8,0.4
		c-0.3-0.3-0.1-1.2-0.1-1.6c0-0.4,0.3-0.4,0.6-0.2C31.7,27.7,31.7,28.3,31.6,28.8z M31,25.2c0.4,0.1,0.4,0.5,0.2,0.7
		c-0.2,0.2-0.5,0.3-0.8,0C30.1,25.5,30.6,25.1,31,25.2z M30.8,30.6c0.4-0.2,0.7,0.2,0.7,0.6c0,0.4-0.3,0.5-0.6,0.6
		c-0.2,0.1-0.7-0.1-0.7-0.4C30.2,31,30.5,30.8,30.8,30.6z M32.6,25.8c-0.5,0.1-0.5-0.8-0.3-1.4c0.2-0.6,0.7-0.6,0.9-0.1
		C33.7,25.1,33.1,25.7,32.6,25.8z M32.5,29.1c-0.3-0.2-0.1-0.8,0.1-0.8c0.2-0.1,0.4,0,0.5,0.3C33.2,29,32.8,29.3,32.5,29.1z
		 M37.9,24.5c0.6,0.9-0.4,1.3-1,1.3c-0.5,0,0-0.8,0.1-1.2C37.1,24,37.6,24,37.9,24.5z M37.4,22c0.4-0.3,0.7,0.3,0.8,0.7
		c0.2,0.5,0.2,0.6-0.5,0.6c-0.6,0-0.5-0.2-0.6-0.5S37,22.3,37.4,22z M36.8,26.2c0.2,0,0.4,0.3,0.3,0.5C37,27,36.8,27,36.5,27
		c-0.3,0-0.4-0.4-0.2-0.6C36.4,26.2,36.6,26.2,36.8,26.2z M35.3,24c-0.7,0.1,0.1-1.2,0.3-1.6c0.3-0.4,0.6-0.2,0.7,0.3
		C36.6,23.9,36,24,35.3,24z M36,25.8c-0.2,0.4-0.7,0.4-1.2-0.2c-0.5-0.6,0.7-1,1.1-0.9C36.3,24.8,36.2,25.2,36,25.8z M35.7,28.3
		c-0.4,0.2-0.7-0.2-0.7-0.5c0-0.3,0.2-0.6,0.7-0.5C36.3,27.6,36.1,28.2,35.7,28.3z M34.5,30c0.5,0.2,0.3,0.7,0.1,0.9
		c-0.2,0.2-0.7,0-0.7-0.4C33.9,30.1,34.1,29.9,34.5,30z M34,27.7c0.2-0.1,0.4,0,0.5,0.3c0.1,0.4-0.3,0.7-0.6,0.5
		C33.7,28.4,33.8,27.8,34,27.7z M34.5,26.7c-0.2,0-0.5-0.1-0.4-0.3c0-0.2,0.1-0.3,0.4-0.3c0.3,0,0.4,0.2,0.4,0.4
		C34.9,26.7,34.7,26.7,34.5,26.7z M34.5,21.4c-0.9-0.2-0.8-0.6-0.5-1.1c0.3-0.5,0.8-0.7,1.1-0.4C36.1,20.8,35.4,21.6,34.5,21.4z
		 M34.2,22c0.3,0,0.5,0.2,0.6,0.5c0.1,0.3-0.1,0.6-0.4,0.7c-0.3,0.1-0.6,0-0.8-0.3c-0.2-0.3,0-0.6,0.2-0.8
		C33.7,22.2,33.9,22,34.2,22z M36.7,33.1c-0.2,0.2-0.4-0.1-0.4-0.3c0-0.2,0.1-0.5,0.3-0.4C37,32.5,36.9,32.9,36.7,33.1z M36.7,30.5
		c-0.1-0.3,0-0.8,0.3-0.6c0.4,0.3,0.4,0.9,0.2,1C37,31.1,36.8,30.7,36.7,30.5z M37.2,29.1c-0.6,0.1-0.6-0.4-0.5-0.8
		c0.1-0.4,0.3-0.6,0.6-0.5c0.1,0,0.2,0.1,0.5,0.3C38.1,28.3,37.8,29,37.2,29.1z M38.1,26.4c0.3-0.4,0.7-0.4,0.9-0.1
		c0.3,0.7-0.4,1.2-1,1.1S37.9,26.8,38.1,26.4z M42.8,23.4c0.1,0.6,0,0.9-0.3,1.2c-0.2,0.2-0.4-0.2-0.5-0.6v0c0,0-0.1-0.6-0.7-0.4
		c-0.6,0.2-0.7-0.7-0.7-1.2c0.1-0.6,0.3-0.8,0.7-0.8c0.5,0.1,0.4,0.8,0.5,1.1c0.1,0.2,0.4,0.1,0.4,0.1v0
		C42.2,22.8,42.7,22.6,42.8,23.4z M57.7,26.2c0.2,0.3,0.3,0.6,0.1,0.8c-0.2,0.3-0.6,0.2-0.9,0.1c-0.3-0.1-0.6-0.6-0.3-1.1
		C56.7,25.6,57.4,25.9,57.7,26.2z M57,23.9c0.2-0.1,0.4-0.2,0.5,0.2c0.1,0.3,0,0.4-0.2,0.6c0,0-0.3,0.2-0.4-0.1
		C56.7,24.3,56.8,24,57,23.9z M56.9,29.4c0.2-0.2,0.4-0.3,0.6,0.1c0.2,0.6,0,1-0.5,0.8C56.4,30.2,56.7,29.7,56.9,29.4z M56.6,28.6
		c-0.7,0.5-1,0-1-0.7c0-0.6,0.3-0.7,0.8-0.5C57,27.6,57.2,28.2,56.6,28.6z M56.1,24.6c-0.2,0.7-0.5,0.2-1,0c-0.5-0.2-0.3-0.6,0-1.1
		c0.3-0.5,0.8-0.7,1.3-0.2C56.8,23.9,56.3,24,56.1,24.6z M54.7,23c-0.3,0.1-0.7-0.1-0.6-0.4c0.1-0.3,0.3-0.3,0.6-0.1
		C54.9,22.6,54.9,22.9,54.7,23z M54.6,25.4c0.5,0,0.6,0.2,0.7,0.6c0,0,0.1,0.4-0.3,0.5c-0.4,0.1-0.8-0.2-0.9-0.5
		C54,25.7,54.2,25.4,54.6,25.4z M53.2,29.5c-0.3-0.3,0-0.8,0.3-0.7c0.8,0.3,1.3,0.9,0.9,1.9c-0.4,0.8-0.9,0.6-0.8,0.2
		C53.7,30.3,53.5,29.8,53.2,29.5z M52.9,32.9c0.1-0.1,0.4-0.2,0.5,0c0.2,0.4-0.2,0.6-0.5,0.5C52.6,33.4,52.8,33.1,52.9,32.9z
		 M52.7,32.3c-0.3-0.2,0-0.4,0.1-0.5c0.1-0.1,0.5-0.1,0.5,0.1C53.3,32.4,53,32.5,52.7,32.3z M54.1,27.4c0.1,0.5-0.4,0.7-1.2,0.5
		c-0.8-0.3,0.1-1.3,0.5-1.4C53.9,26.3,54,26.8,54.1,27.4z M52.8,30.1c0.4,0.8,0.1,1.3-0.7,1.5s-0.8-0.4-0.5-0.6
		c0.3-0.2,0.2-0.3,0.5-0.8C52.3,29.7,52.6,29.8,52.8,30.1z M51.7,28c0,0.3-0.3,0.5-0.8,0.2c-0.5-0.3-0.7-0.7-0.6-1.2
		c0.1-0.5,0.4-0.6,0.8-0.5C51.9,26.8,51.7,27.6,51.7,28z M50.2,25.6c-0.2,0.2-0.5,0.2-0.7,0.3c-0.2,0.1-0.3,0.3-0.4,0.5
		c-0.2,0.2-0.5,0.3-0.6,0.2c-0.1,0-0.3-0.2-0.3-0.4c0-0.2,0.1-0.4,0.4-0.8c0.3-0.3,0.8-0.4,1-0.5c0.2-0.1,0.6,0,0.7,0.1
		C50.5,25.3,50.3,25.5,50.2,25.6z M48.4,22.7c0.3-0.3,0.5,0,0.6,0.3c0,0,0.4,0.8-0.3,1.2c-0.7,0.5-0.5-0.2-0.5-0.2
		C48.5,23.4,48.1,23,48.4,22.7z M48.2,21.8c-0.5-0.4,0-0.8,0.3-1c0.4-0.2,0.6-0.1,0.9,0.2C50.2,21.6,48.7,22.1,48.2,21.8z
		 M48.5,20.2c-0.8,0.1-0.8-0.4-0.4-1.1c0.4-0.8,0.9-0.4,1.2-0.1C49.9,19.4,49.3,20.1,48.5,20.2z M48.1,29.9c0.5,0.5-0.1,1.2-0.6,1.1
		c-0.4-0.1-0.4-0.7-0.1-1C47.6,29.7,47.8,29.7,48.1,29.9z M45.4,30.5c-0.5-0.5,0.8-1.4,1.2-1.8c0.4-0.4,0.8,0,0.4,0.3
		c-0.4,0.3-0.5,0.5-0.5,0.9C46.7,30.9,46,31,45.4,30.5z M45.1,25.3c-0.4-0.4,0.1-0.7,0.5-0.9c0.4-0.1,0.8,0,1,0.2
		c0.2,0.2,0.3,0.6-0.2,0.9C45.9,25.9,45.5,25.7,45.1,25.3z M46.4,27.7c-0.4,0.1-0.6-0.5-0.5-0.9c0.1-0.4,0.5-0.5,0.7-0.5
		c0.5-0.1,0.4,0.1,0.8,0.3c0.4,0.3,0.4,0.9,0,0.9S46.8,27.6,46.4,27.7z M47.5,23.9c-0.3,0.2-0.6-0.1-0.7-0.3
		c-0.1-0.2,0.1-0.4,0.2-0.7c0.2-0.3,0.6-0.3,0.8,0.1C47.8,23.4,47.7,23.7,47.5,23.9z M46.3,19.3c-0.6-0.1-0.5-0.9-0.3-1.3
		c0.2-0.4,0.5-0.5,1-0.3c0.4,0.2,0.6,0.4,0.5,0.9C47.4,19.2,46.9,19.4,46.3,19.3z M46.4,20.4c0.5,0,1-0.3,0.8,0.7
		c-0.2,1-0.6,0.8-1.1,0.5c-0.5-0.3-0.9-0.6-0.8-1C45.4,20.2,45.9,20.4,46.4,20.4z M45.6,22c0,0,0.4,0.1,0.5,0.7
		c0,0.6-0.2,0.9-0.7,1.1C45,24.1,45,23.1,45,22.7C45,22.2,45.2,22,45.6,22z M44.7,20c-0.4,0-0.7-0.1-0.4-0.7
		c0.3-0.6,0.7-0.6,0.8-0.4C45.6,20.1,44.7,20,44.7,20z M44.4,21.8c0,0.4-0.1,0.8-0.5,0.7c-0.5-0.1-0.7-0.2-0.7-0.5s0.3-0.4,0.4-0.7
		c0.1-0.3,0-0.8,0.5-0.6C44.4,20.8,44.4,21.6,44.4,21.8z M44.2,24.7c-0.3,0.3-0.7-0.4-0.6-1c0.1-0.6,0.4-0.7,0.6-0.5
		C44.6,23.5,44.5,24.4,44.2,24.7z M43,19.9c-0.4-0.1-0.6-0.9-0.3-1.1c0.2-0.2,0.5-0.2,0.8,0.2C43.8,19.4,43.5,20.1,43,19.9z
		 M42.8,26.9c-0.3,0.2-0.4,0.6-0.9,0.7c-0.5,0.2-0.2-0.9,0.1-1.4c0.3-0.5,0.7-0.3,0.9,0C43,26.3,43.2,26.7,42.8,26.9z M40.9,25.5
		c0.2-0.2,0.3-0.1,0.4,0.1c0,0,0.1,0.1-0.1,0.6c-0.2,0.5-0.5,0.7-0.9,0.7c-0.4-0.1-0.3-0.6,0.1-0.8C40.6,25.9,40.7,25.7,40.9,25.5z
		 M39.2,25.4c-0.6,0-0.6-0.7-0.3-1.1c0.3-0.3,0.5-0.3,0.9-0.2c0.3,0.1,0.5,0.3,0.5,0.7C40.4,25.3,39.8,25.4,39.2,25.4z M39.2,21.4
		c0.3-0.3,0.5-0.2,0.6-0.1c0.2,0.2,0.4,0.9,0.1,1.3c-0.3,0.4-0.7,0.3-0.9-0.1C38.9,22,38.9,21.7,39.2,21.4z M39,20.6
		c-0.7,0.3-0.8-0.3-0.5-1c0.2-0.7,0.3-0.6,1-0.7c0.6-0.1,0.6,0.2,0.7,0.7C40.3,20.1,39.6,20.2,39,20.6z M38.1,30.5
		c0-0.2,0.2-0.2,0.4-0.2c0.2,0,0.3,0.2,0.3,0.6c0,0.4-0.2,0.7-0.5,0.7c-0.2,0-0.3-0.2-0.2-0.4C38.1,31,38.1,30.7,38.1,30.5z
		 M38.5,28.3c-0.3-0.3,0.2-0.4,0.5-0.6c0.3-0.2,0.4-0.1,0.6,0.1c0.5,0.4,0.5,0.6,0.4,0.8c-0.1,0.2-0.3,0.1-0.8,0.3
		S38.8,28.5,38.5,28.3z M39.5,30.1c0-0.3,0.2-0.3,0.3-0.4c0.4-0.2,0.5,0,0.6,0.2c0.1,0.2,0.2,0.4,0.5,0.5c0.3,0.1,0.4,0,0.4,0.4
		c0,0.3-0.5,0.4-0.8,0.4c-0.2,0-0.6-0.1-0.8-0.2C39.4,30.8,39.5,30.4,39.5,30.1z M40.7,29c-0.2-0.4,0-0.9,0.5-0.8
		c0.4,0.1,0.4,0.4,0.9,0.3c0.5,0,0.5,0.2,0.4,0.4c-0.1,0.2-0.2,0.1-0.7,0.4C41.3,29.6,40.9,29.4,40.7,29z M42.2,30.9
		c0.4-0.4,0.1-1,0.6-1.2c0.6-0.3,0.8,0.1,1,0.6c0.1,0.5,0.3,0.7-0.5,1.2C42.4,32.1,41.9,31.4,42.2,30.9z M43.3,28.7
		c-0.5-0.4-0.4-1-0.1-1.3c0.3-0.3,0.4-0.1,0.6,0.2c0,0,0.1,0.4,0.2,0.9C44.1,29,43.8,29.1,43.3,28.7z M43.9,25.6
		c0.3-0.4,0.7,0.2,0.8,0.5c0,0,0.2,0.6,0.2,1c0,0.4-0.2,0.6-0.6,0.1C43.9,26.8,43.6,26,43.9,25.6z M44.3,29.4
		c0.1-0.1,0.3-0.4,0.4-0.7c0.1-0.3,0.3-0.5,0.5-0.3c0.3,0.5-0.1,1-0.5,1.3C44.3,29.9,44.1,29.6,44.3,29.4z M49.1,36
		c0.3,0,0.5,0.3,0.3,0.6c-0.2,0.3-0.8,0.2-0.8-0.1C48.5,36.1,48.7,35.9,49.1,36z M48.5,32.7c-0.2-0.3-0.2-0.5,0-1.1
		c0.1-0.6,0.5-0.9,0.9-0.5c0.4,0.4,0.2,1.4,0.2,1.4C49.4,32.9,48.7,33,48.5,32.7z M48.8,29c0-0.6,0.2-0.9,0.6-0.8
		c1,0.3,0.8,1,0.3,1.5C49.2,30.3,48.7,29.6,48.8,29z M50.3,29.7c0.2-0.3,0.4-0.3,0.5-0.2c1,0.9,0,1.3-0.6,1.2
		C49.7,30.6,50.2,30,50.3,29.7z M50.4,31.1c0.4,0.1,0.4,0.5,0.1,0.7c-0.2,0.2-0.4-0.1-0.4-0.3C50,31.4,50.2,31.1,50.4,31.1z
		 M50.2,36.2c0,0,0.4-1.5,0.8-1.9c0,0,0.1-0.1,0.1-0.1c0.2,0,0.4,0,0.6-0.1c0.7-0.1,0.9-0.3,1.2,0.2c0.3,0.5,0.9,1.1,1.6,0.9h0
		c-0.1,0-0.3,0.1-0.4,0.1c-1.1,0.4-1.1,0.5-2,0.7c-0.8,0.2-0.5,0.2-1.7,0.3C50.4,36.1,50.3,36.2,50.2,36.2L50.2,36.2z M53.9,33.8
		c0.2-0.5,0.8-0.6,1.1-0.2c0,0,0.2,0.3,0,0.6C54.9,34.5,53.8,34.3,53.9,33.8z M54.9,32.1c-0.4,0.2-0.7-0.2-0.7-0.5
		c0-0.3,0.2-0.6,0.7-0.5C55.6,31.4,55.4,32,54.9,32.1z M55.1,30.1c-0.3-0.3,0-0.9,0.5-0.4c1.1,1,0.5,1.8,0.2,1.6
		C55.6,31.1,55.4,30.5,55.1,30.1z M56.2,32.1c0.5-0.3,0.5-0.7,0.9-0.6c0.3,0.1,0.4,0.3,0.7,0.6c0.2,0.3,0,0.6-0.6,0.6
		c-0.6,0-1.1,0.2-1.3,0C55.5,32.5,55.7,32.4,56.2,32.1z M57.6,33.6c0.6,0.2,0.7,0.8,0,0.8c-0.7,0-1.3,0.1-1.2-0.3
		C56.4,33.7,57,33.4,57.6,33.6z M57.3,35c0,0,0.6-0.1,0.8,0.2c0.2,0.4-0.2,0.6-0.8,0.5C56.7,35.7,57,35.1,57.3,35z M58.1,25.4
		c0-0.4-0.1-1.3,0.5-0.8c0.6,0.5,1.4,2.1,0.1,1.7C58.1,26.1,58,25.9,58.1,25.4z M58.9,30.2c0.6,0.7,0.5,1.6-0.1,1.7
		c-0.5,0.1-0.6-0.9-0.7-1.5C58,29.8,58.6,29.9,58.9,30.2z M58.8,28.6c0.3-0.2,0.5-0.2,0.8,0.1c0.3,0.4,0,1.1-0.4,1
		C58.7,29.6,58.5,28.8,58.8,28.6z M59.7,31.8c0-0.6,0.3-0.4,0.6-0.3c0.4,0.1,0.4,0.7,0,1C59.9,32.7,59.7,32.4,59.7,31.8z M60.9,25.1
		c0.3,0.2,0.4,0.7,0,0.9c-0.4,0.2-1.1-0.2-0.9-0.7C60.1,24.9,60.5,24.8,60.9,25.1z M61.6,27.6c0.2,0.4,0,0.7-0.7,0.4
		c-0.3-0.1-0.7-0.2-1.6-0.2c-0.8,0-0.8-0.6-0.4-0.7c0.4-0.1,0.7-0.2,1-0.3C61,26.5,61.4,27.2,61.6,27.6z M59.3,23.5
		c0.2-0.1,0.4,0,0.5,0.3c0.1,0.4-0.3,0.7-0.5,0.5C59,24.2,59.1,23.6,59.3,23.5z M56,20.9c1-0.2,1.1,0.1,1,0.4c0,0.3-0.7,0.1-0.6,0.4
		c0,0.3,0.6,0.8,0.9,0.4c0.3-0.3,0.9-0.5,1.2,0c0.2,0.5-0.5,1-1.2,0.8c-0.3-0.1-0.4-0.3-1.3-0.6C55.1,22.1,55.1,21.1,56,20.9z
		 M54,20.1c0.1-0.2,0.1-0.4,0.1-0.6c0.1-0.2,0.3-0.4,0.6-0.5c0.2,0,0.4,0.2,0.6,0.5c0.2,0.3,0.1,0.7-0.2,1c-0.3,0.3-0.6,0.2-0.9,0.2
		C54,20.6,53.9,20.3,54,20.1z M53.3,24.7c-0.6-0.1-1-0.5-0.7-0.7c0.3-0.2,0.7-0.5,1.2-0.1C54.5,24.4,53.8,24.8,53.3,24.7z
		 M53.3,20.8c0,0.2,0.2,0.4,0.3,0.5c0.1,0.1,0.1,0.4-0.2,0.6c-0.2,0.2-0.2,0.5-0.2,0.8c0,0.3-0.4,0.5-0.6,0.5
		c-0.2,0-0.4-0.2-0.3-0.5c0-0.3,0.2-0.5,0.4-0.8c0.2-0.3,0.2-0.5,0.2-0.9C52.9,20.6,53.3,20.6,53.3,20.8z M52.2,18.2
		c0.3-0.6,0.7-0.9,0.9-0.5c0.3,0.7-0.5,1.6-0.5,1.6C52.1,20.1,51.9,18.8,52.2,18.2z M52.6,25.2c0.6,0.3,0.4,1.1-0.2,1.2
		c-0.7,0.1-1-0.7-0.8-1.1C51.9,25,52.1,25,52.6,25.2z M51.4,17c0.2,0.2,0.5,0.8,0,1.1c-0.5,0.4-1,0-1-0.5C50.4,17,50.9,16.6,51.4,17
		z M50.8,19.4c0.4-0.2,0.6,0,0.7,0.1c0.2,0.3,0.1,1.1-0.3,1.4c-0.4,0.3-0.8,0.1-0.9-0.4C50.3,20,50.4,19.6,50.8,19.4z M51.1,23
		c0.3,0.7-0.3,0.8-0.7,1.2c-0.3,0.4-0.9,0.3-0.7-0.1c0.2-0.4,0.2-0.7,0.1-1.1c-0.1-0.3-0.1-0.6,0.1-0.8C50.3,22,50.7,22.2,51.1,23z
		 M49,15.9c0.5-0.3,0.7-0.1,0.8,0.1c0.2,0.3,0.1,1.3-0.4,1.7c-0.5,0.4-1,0.1-1.1-0.5C48.4,16.6,48.6,16.2,49,15.9z M47.4,15.1
		c0,0,0.2-0.2,0.4-0.2c0.2,0,0.4,0.1,0.5,0.4c0.1,0.3-0.1,0.6-0.3,0.6s-0.6,0-0.7-0.2C47.1,15.6,47.2,15.3,47.4,15.1z M47,16.4
		c0.2,0.1,0.2,0.4,0,0.5c-0.3,0.1-0.4,0.1-0.7-0.1c0,0-0.3-0.2,0-0.4S46.8,16.3,47,16.4z M45.5,14.5c0.5,0,0.9,0,1,0.4
		s0,0.6-0.4,0.9c-0.4,0.3-0.9,0.7-1.1,0.2C44.9,15.4,45,14.5,45.5,14.5z M45,16.9c0.4,0.6,0.1,0.9-0.4,1.4c-0.5,0.4-0.6-0.2-0.9-0.6
		c-0.2-0.4-0.2-0.7,0.3-1C44.6,16.4,44.7,16.5,45,16.9z M43.6,14.1c0.3,0,0.4,0.1,0.7,0.3c0.3,0.2,0.1,0.6-0.2,0.5
		c-0.3-0.1-0.6,0.2-0.9,0.2c-0.3,0-0.3-0.1-0.4-0.4C42.7,14.4,43.3,14.1,43.6,14.1z M43,15.8c0.3,0.1,0.3,0.4,0.2,0.5
		c-0.1,0.2-0.3,0.5-0.4,0.7c-0.1,0.2-0.1,0.5-0.1,0.6c0,0.3-0.2,0.5-0.4,0.6c-0.1,0.1-0.3,0-0.5-0.2c-0.1-0.2-0.2-0.4-0.1-0.9
		c0.1-0.5,0.4-0.8,0.6-1C42.5,15.9,42.8,15.7,43,15.8z M41.6,14c0.2-0.1,0.4-0.1,0.5,0.2c0.1,0.3,0,0.4-0.2,0.6c0,0-0.3,0.2-0.4-0.1
		C41.3,14.4,41.4,14.1,41.6,14z M41.3,20c0.1-0.5,0.4-0.7,0.8-0.5c0.7,0.5,0.3,1.3-0.2,1.4C41.3,21.1,41.2,20.5,41.3,20z M39.4,16.6
		c0,0,1.1-0.6,0.6-0.8c-0.4-0.2-0.3-1.3-0.1-1.8c0.1-0.5,0.5-0.4,0.7-0.2c0.2,0.2,0.1,0.9,0.1,1.3c0,0.4,0,0.5-0.2,0.8
		c-0.2,0.3-0.2,0.2,0.3,0.4c0.5,0.2-0.1,0.9-0.4,1.1c-0.3,0.2-0.5,0.9-1,0.5S39.2,16.8,39.4,16.6z M38.3,13.8
		c0.3-0.4,0.7-0.3,0.8,0.1c0.1,0.4,0.1,0.7-0.2,1c-0.2,0.3-0.5,0.2-0.6,0.1C38.2,14.8,38.1,14.2,38.3,13.8z M38.3,15.8
		c0.1,0.2,0.1,0.4-0.2,0.8c-0.3,0.4-0.3,0.6-0.2,1.3c0.1,0.7-0.1,1.2-0.7,0.7c-0.6-0.5-0.7-1-0.5-1.3c0.2-0.3,0.3-0.8,0.6-1.3
		C37.6,15.6,38.1,15.4,38.3,15.8z M36.7,13.7c0.5-0.3,0.6,0.4,0.7,0.8c0.1,0.4-0.1,0.5-0.3,0.5C35.8,15,36.2,14,36.7,13.7z
		 M37.1,19.3c0.6,0.7,0.5,1-0.2,0.9c-0.7-0.1-1.4-0.4-0.9-0.9C36.5,18.8,36.9,19,37.1,19.3z M35.9,17.9c-0.2,0.2-0.4,0.6-0.5,0.9
		c-0.2,0.3-0.4,0.3-0.6,0.2c-0.2-0.2-0.1-0.4,0.1-0.6c0.2-0.2,0.2-0.4,0.2-0.6c0-0.4,0.4-0.6,0.6-0.5C35.9,17.4,36.2,17.6,35.9,17.9
		z M35.4,14c0.3,0.2,0.3,0.3,0.3,0.6c0,0,0,0.3-0.3,0.2c-0.3-0.1-0.4-0.4-0.4-0.6C35,14,35.2,13.9,35.4,14z M35,16
		c0.6,0.2,0.5,0.7,0.2,0.9c-0.3,0.3-0.5-0.1-0.6-0.4C34.6,16.3,34.8,15.9,35,16z M34.3,18.1c-0.2,0.1-0.6,0-0.6-0.3
		c0-0.3,0.2-0.4,0.5-0.3C34.7,17.6,34.5,18,34.3,18.1z M33.5,14.6c0.2-0.2,0.6-0.5,0.8,0.1c0.1,0.2,0.3,0.8,0,0.9
		c-0.3,0.1-0.6,0-0.7-0.2C33.4,15.3,33.3,14.8,33.5,14.6z M32.1,14.6c0.4-0.3,0.7,0.3,0.7,0.6c0,0,0.1,0.6,0.1,1
		c0,0.4-0.2,0.6-0.6,0C31.9,15.8,31.7,14.9,32.1,14.6z M32.7,18.1c0,0,0.1,0.2,0.7,0.6c0.6,0.4-0.2,0.9-0.5,0.8
		c-0.4-0.1-0.5-0.2-0.9,0.1s-1.1,0.5-1-0.3c0-0.8,0.7-0.9,0.9-1.1C31.9,17.9,32.6,17.6,32.7,18.1z M31.2,15.5
		c0.9,1.8-0.3,2.1-0.3,1.6c0-0.5-0.2-1.2-0.4-1.7C30.4,14.9,30.9,14.9,31.2,15.5z M30,21.7c0.1-0.6,0.3-0.5,0.6-0.6
		c0.6-0.3,1.1-0.2,1.6,0.1c0.5,0.3-0.1,0.6-0.4,1c-0.3,0.5-0.5,0-1.1,0.2C30,22.5,29.9,22.2,30,21.7z M29.8,28.8
		c-0.4,0.7-1.1,0.2-1.3-0.2c-0.2-0.4,0.3-1,0.9-0.9C29.9,27.9,30.1,28.3,29.8,28.8z M29.2,15.9c0.1-0.2,0.3-0.3,0.5-0.1
		c0.2,0.2,0.2,0.4,0.1,0.7c0,0-0.1,0.3-0.4,0.2C29.2,16.5,29.1,16.1,29.2,15.9z M29,17.9c0.2-0.2,0.4-0.1,0.6,0.1
		c0,0,0.3,0.8,0.3,1.2c0,0.3-0.3,0.5-0.7,0.5c-0.4,0-0.5-0.3-0.8-0.7c-0.3-0.3,0-0.5,0.3-0.6C28.9,18.3,28.8,18.1,29,17.9z
		 M28.4,16.3c0.2,0.3,0.1,0.8-0.2,1.1c-0.3,0.2-0.8-0.4-0.8-0.7C27.5,16.4,28.2,16,28.4,16.3z M27.9,19.8c0.6,0.2,0.9,0.6,0.4,1.1
		c-0.5,0.4-0.6-0.2-0.8-0.5C27.3,20.2,27.4,19.7,27.9,19.8z M26.3,17.3c0.9-0.2,1.3,1,0.9,1.4c-0.4,0.4-0.8,0.5-1.1,0
		C25.9,18.3,25.4,17.4,26.3,17.3z M26.2,22.5c-0.1,0.5-0.3,0.9-0.8,1.1c-0.5,0.1-0.4-0.3-0.4-0.8c-0.1-0.5,0.1-0.8,0.2-1.1
		c0.2-0.3,0.3-0.3,0.5-0.3C26.5,21.3,26.2,22,26.2,22.5z M25.1,18.6c0.4,0.6,0.7,1.3,0,1.3c-0.7,0-0.8-0.4-0.8-0.8
		C24.4,18.2,24.7,18,25.1,18.6z M24.6,26.4c0.4,0.2,0.4,1.1-0.1,0.9c-0.5-0.2-0.8,0.1-1-0.1c-0.3-0.2-0.1-0.4,0.4-0.8
		C24.2,26.1,24.5,26.3,24.6,26.4z M24.1,25.1c0,0.3,0,0.5-0.6,0.6c-0.6,0.1-0.2-0.7-0.1-1.2c0.1-0.5,0.4-0.3,0.5-0.1
		C24,24.5,24.1,24.8,24.1,25.1z M22.7,20.1c0.2-0.3,0.5-0.4,0.9-0.1c0.6,0.3,0.4,1.3-0.1,1.3C22.9,21.3,22.5,20.4,22.7,20.1z
		 M23.5,22.4c0.2,0.2,0.5,0.8,0,1.2c-0.5,0.4-1,0-1-0.6C22.5,22.4,23,22,23.5,22.4z M22,20.9c0.4,0.1,0.3,0.5,0.1,0.7
		c-0.2,0.1-0.6,0-0.6-0.3C21.5,21,21.7,20.8,22,20.9z M21.4,25.4c0.1-0.2,0.3-0.6,0.2-1.2c-0.1-0.5-0.1-0.7,0.3-0.3
		c0.4,0.4,0.5,0.8,0.5,0.8c0.2,0.5,0.1,0.8-0.4,0.9C21.4,25.7,21.3,25.6,21.4,25.4z M21.2,26.9c0.3-0.1,0.3,0.3,0.3,0.7
		s-0.1,0.4-0.5,0.7c-0.4,0.3-0.4-0.2-0.5-0.5c-0.1-0.2,0-0.5,0.2-0.7C20.7,26.9,20.9,26.9,21.2,26.9z M19.5,23.1
		c0.2-0.3,0.4-0.3,0.8-0.1c0.5,0.3,0.4,1.1-0.1,1.1C19.7,24.1,19.3,23.3,19.5,23.1z M18.4,24.4c0.2-0.3,0.5-0.3,0.7-0.1
		c0.1,0.1,0.3,0.3,0.3,0.6c0,0.4-0.2,0.5-0.5,0.5c-0.3,0-0.5,0.2-0.8,0C17.8,25.1,18.2,24.7,18.4,24.4z M18,26.3
		c0.3,0.2,0.4,0.6,0,0.8s-1-0.2-0.9-0.6C17.2,26.1,17.5,26,18,26.3z M16.4,27.9c0.2-0.1,0.4,0,0.6,0.2c0.2,0.2,0.6,0.6,0.9,0.9
		c0.3,0.3,0.4,0.3,0.5,0.5c0,0.2-0.4,0.3-0.6-0.1c-0.2-0.4-0.5-0.4-0.7-0.3c-0.2,0.1-0.6-0.1-0.8-0.5C16,28.4,16.2,28,16.4,27.9z
		 M15.4,30c0.2-0.3,0.6-0.3,1,0c0.4,0.3,0.5,0.7,0.2,0.8c-0.3,0.1-0.3,0.5-0.5,0.6c-0.2,0.1-0.6-0.2-0.8-0.4
		C15.2,30.7,15.3,30.2,15.4,30z M15.3,36.7C15,36.6,14.9,36.5,15,36c0.1-0.5,0.5-0.7,0.6-0.8c0.2-0.1,0.3-0.1,0.4,0.1
		c0,0,0.1,0.2,0.1,0.4c0,0.1,0,0.3-0.1,0.5c-0.1,0.2,0,0.3-0.1,0.5C15.9,36.8,15.5,36.8,15.3,36.7z M15.6,38.4
		c-0.1,0.3-0.6,0.6-0.8,0.8c-0.2,0.2-0.7,0.5-0.9,0.3c-0.2-0.2-0.1-0.8,0.3-0.9c0.4-0.1,0.5-0.5,0.7-0.7
		C15.4,37.6,15.8,37.9,15.6,38.4z M14.6,32.1c-0.1-0.3,0.2-0.4,0.5,0c0.3,0.3,0.4,0.3,0.5,0.4c0.1,0.1,0.2,0.3,0.1,0.5
		c-0.1,0.1-0.2,0.2-0.6,0.3c-0.3,0-0.6-0.1-0.7-0.4C14.4,32.5,14.7,32.4,14.6,32.1z M14.1,34.3c0.2-0.2,0.3-0.2,0.7-0.2
		c0.3,0,0.4,0.3,0.2,0.4c-0.3,0.1-0.3,0.5-0.4,0.6c-0.2,0.2-0.3,0.1-0.6,0C13.6,35,13.9,34.5,14.1,34.3z M13.7,36.8
		c0.1-0.2,0.1-0.3,0.4-0.3c0.2,0,0.2,0.1,0.3,0.3c0,0.1,0.1,0.1,0.1,0.2c0.1,0.1,0,0.2-0.1,0.3c0,0-0.2,0.2-0.4,0.1
		C13.7,37.3,13.6,37,13.7,36.8z M65.2,39.9c-0.1,6.9-3,13.2-7.6,17.8c-4.7,4.7-11.1,7.6-18.3,7.6c-7.2,0-13.6-2.9-18.3-7.6
		c-4.4-4.4-7.2-10.4-7.5-17.1c0,0,0-0.1,0-0.1c0.4-0.1,0.9-0.3,1.4-0.6c0.8-0.6,1.1-0.6,1.6-0.5c0.5,0.1,1,0,1.3-0.3
		c0.3-0.2,0.5-0.4,0.9-0.4c0.4,0,0.8-0.3,1.2-0.6c0.4-0.3,0.8-0.7,1.3-0.6c0.5,0.1,0.9,0.2,1.3,0.1c0.3-0.1,0.8-0.5,1-0.8
		c0.2-0.4,0.6-0.9,1.1-1c0.2-0.1,0.7-0.1,1.1-0.2c0.7,0.2,1.2,0.8,2,1.2c0.8,0.4,1.6,0.8,2.4,1.1c0.8,0.3,1.5,0.4,2.2,0.8
		c0.7,0.4,0.4,0.1,0.8,0.5c0,0,0.5,0.3,0.5,0.5c0,0.2,0,0.6,0,0.6c-0.1,0.7-0.1,1.3-0.2,1.6c-0.1,0.3-0.1,0.5-0.2,0.9
		C33.1,43,33,43.2,33,43.5c-0.1,0.3-0.2,0.5-0.3,0.7c-0.1,0.2-0.1,0.7-0.4,0.8c-0.2,0.1-0.7,0.3-0.9,0.3c-0.3,0-0.7,0.1-1,0.2
		c-0.2,0.1-0.6,0.3-1,0.4C29,46,28.6,46,28.1,46c-0.5,0.1-0.5,0.1-1,0.1c-0.5,0-0.9-0.2-1.2-0.2c-0.3,0-0.6,0-0.9,0.1
		c-0.3,0.2-0.3,0.4-0.2,0.6s0.3,0.4,0.8,0.5c0.5,0.1,0.8,0.1,1.1,0.1c0.4,0,1,0,1.4,0c0.4,0,1.2,0,1.6-0.1c0.5-0.1,1-0.3,1.4-0.4
		c0,0,0.5-0.1,0.8-0.1s0.7,0.2,0.9,0.2c0.2,0,1,0.1,1.4,0.1c0.4,0,1,0.1,1.4,0l1.9-0.2c1,0,0.8-0.8,0.4-0.9
		c-0.2-0.1-0.7,0.1-0.9,0.1c0,0-0.9,0.1-1.4-0.4c-0.2-0.2-0.2-0.5,0-1c0.2-0.5,0.2-0.9,0-1.3c-0.1-0.3-0.1-0.5-0.1-0.7
		c0.1-0.2,0.1-0.5,0.3-0.6c0.4-0.5,0.8-0.4,1-0.3c0,0,0.3,0.2,0.2,0.6s-0.3,0.4-0.3,0.6c0,0.2,0,0.3,0.1,0.5c0.1,0.2,0.2,0.4,0,0.7
		c-0.4,0.4-0.1,0.7,0.2,0.8c0,0,0.7,0,1-0.2c0.3-0.2,0.4-0.5,0.4-0.8c0-0.3-0.4-0.4,0-0.8c0.4-0.4,0.2-0.8,0.2-1.1
		c0-0.3,0.1-0.3,0.2-0.7c0.1-0.4-0.2-0.7-0.4-0.4c-0.2,0.3-0.3-0.8-0.2-1c0.2-0.2,0.2-0.3,0.4-0.6c0.1-0.3,0.2-0.2,0.1-0.6
		c-0.1-0.4-0.3-0.2-0.5-0.2c-0.4-0.2-0.2-0.9-0.1-1.5c0.1-0.5,0.4,0,0.8,0.5c0.3,0.5,0.4-0.6,0.2-1.1c-0.1-0.4,0.1-1.3,0-1.7
		c-0.1-0.4-0.2-0.9,0-1.3c0.1-0.2,0.2-1,0.2-1.7c0.2-0.3,0.4-0.5,1.1-0.4c0,0.2,0,0.4,0,0.5c-0.1,0.3-0.1,0.6-0.3,0.9
		c-0.2,0.3,0,0.8,0.2,0.9c0.2,0.1,0.1,0.2,0,0.5c-0.1,0.2-0.2,0.4,0,0.6c0.2,0.1,0,0.1,0,0.5c0,0.4,0.1,0.2,0,0.7
		c-0.1,0.5-0.1,0.9,0.2,0.9c0.3,0,0.6-0.1,0.7,0.1c0.1,0.3,0.2,0.9,0.5,0.7c0.3-0.1,0.5-0.4,0.5-0.8c0-0.5-0.2-0.9-0.2-1.5
		c0-0.7,0-0.7,0.1-1.3c0.1-0.6,0.1-0.6,0-1.2c-0.1-0.3-0.1-0.5-0.1-0.7c0.2,0.2,0.5,0.3,1.3,0.4l0,0c0,0.1,0,0.1-0.1,0.2
		c-0.3,0.4-0.3,0.6-0.1,0.9c0.1,0.3,0.6,0.4,0.2,0.9c-0.3,0.3-0.1,0.8,0.4,0.8c0.6-0.1,0.8,0,0.7,0.4c-0.1,0.5,0.3,0.5,0.5,0.5
		c1.2-0.1,1.2,1.4,0.5,1.6c-0.7,0.1-0.7,0.2-1.1,0.4c-0.4,0.2-0.5,0.9-0.3,1.2c0.2,0.3,0.3,0.5,0.1,0.8c-0.2,0.3-0.3,0.6-0.1,0.9
		c0.2,0.3,0.3,0.7,0,1c-0.3,0.3-0.4,1-0.2,1.4c0.2,0.4,0.5,0.9,0.2,1.1c-0.3,0.2-0.3,0.1-0.8,0.1c-0.5-0.1-0.7,0.1-0.9-0.3
		s0.3-0.3,0.3-0.8c0-0.5,0,0,0-0.5s0.4-0.9,0.2-1.5c-0.2-0.6,0.3-0.7,0.1-1.2c-0.2-0.4-0.6-0.5-0.7-1c-0.1-0.5-0.1-0.8-0.6-0.7
		c-0.5,0-0.1,2.2-0.2,2.9c-0.1,0.7-0.2,1.1-0.1,1.4c0.1,0.4,0.1,0.4,0.1,0.8c0,0.6-0.3,0.7-0.2,1c0.1,0.3,0,0.5-0.4,0.5
		c-0.4,0-0.8,0.2-0.9,0.6c-0.1,0.3,0.4,0.4,0.7,0.3c0.4-0.1,1-0.3,1.3-0.1c0,0,0.6,0.4,1.1,0.4c0.5,0.1,1.3,0.2,1.7,0.2
		c0.4,0,1.9,0,2.7-0.2c0.8-0.2,1.8-0.4,2.4-0.2c0,0,1.3,0.5,1.7,0.5c0.5,0,1.6-0.1,2.1,0c0.5,0.1,1.8,0.2,2.2,0.2
		c0.5,0,0.9-0.1,0.8-0.4c-0.2-0.3-0.4-0.3-1-0.5c-0.6-0.2-0.6-0.4-1.6-0.4c-1,0.1-1.1,0.2-1.6,0.2s-0.8-0.3-1.4-0.6
		c-0.6-0.3-1.3-0.6-1.8-0.5c-0.5,0.1-1.8,0.3-2.2,0.2c-0.5-0.1-1.3-0.4-1.5-1C45,43.7,45,43.4,45,42.9c0.3-1,0-2.3,0-2.3
		s0-0.5,0.1-0.7c0.1-0.2,0.3-0.8,0.6-0.9c0.4-0.2,0.6-0.3,1.1-0.4c0.5,0,1.1-0.2,1.7-0.3c0.6-0.1,3-0.5,3.7-0.8
		c0.7-0.3,1.3-0.5,1.9-0.8c0.4-0.2,1.1-0.3,1.7-0.4c0.2,0.4,0.8,0.8,2,0.3c1.4-0.6,1.6-0.5,2.2,0.3c0.5,0.7,0.9,0.9,1.6,1
		c0.7,0.1,1.1,0.1,1.4,0.6c0.2,0.5,0.4,1.1,1.2,1C64.5,39.5,64.9,39.6,65.2,39.9C65.2,39.8,65.2,39.8,65.2,39.9z"/>
</g>
</svg>
